<?xml version="1.0" encoding="iso-8859-1"?>
<!-- Generator: Adobe Illustrator 19.0.0, SVG Export Plug-In . SVG Version: 6.00 Build 0)  -->
<svg version="1.1" id="Layer_1" xmlns="http://www.w3.org/2000/svg" xmlns:xlink="http://www.w3.org/1999/xlink" x="0px" y="0px"
	 viewBox="0 0 290.512 290.512" style="enable-background:new 0 0 290.512 290.512;" xml:space="preserve">
<g>
	<g>
		<circle style="fill:#F9BA48;" cx="145.256" cy="145.256" r="145.256"/>
		<rect x="117.142" y="234.284" style="fill:#333333;" width="23.428" height="9.371"/>
		<rect x="103.085" y="248.341" style="fill:#333333;" width="18.743" height="9.371"/>
		<rect x="74.971" y="220.227" style="fill:#333333;" width="9.371" height="9.371"/>
		<rect x="159.313" y="262.398" style="fill:#333333;" width="14.057" height="9.371"/>
		<rect x="220.226" y="234.284" style="fill:#333333;" width="18.743" height="9.371"/>
		<rect x="121.827" y="206.169" style="fill:#333333;" width="14.057" height="9.371"/>
		<rect x="112.456" y="178.055" style="fill:#333333;" width="14.057" height="9.371"/>
		<rect x="149.941" y="149.941" style="fill:#333333;" width="18.743" height="9.371"/>
		<rect x="187.427" y="168.684" style="fill:#333333;" width="18.743" height="9.371"/>
		<rect x="215.541" y="178.055" style="fill:#333333;" width="14.057" height="9.371"/>
		<rect x="224.912" y="154.627" style="fill:#333333;" width="23.428" height="9.371"/>
		<rect x="253.026" y="140.57" style="fill:#333333;" width="14.057" height="9.371"/>
		<rect x="126.513" y="159.313" style="fill:#333333;" width="18.743" height="9.371"/>
		<rect x="93.713" y="215.541" style="fill:#333333;" width="18.743" height="9.371"/>
		<rect x="135.884" y="248.341" style="fill:#333333;" width="18.743" height="9.371"/>
		<rect x="46.857" y="192.112" style="fill:#333333;" width="18.743" height="9.371"/>
		<rect x="28.114" y="163.998" style="fill:#333333;" width="18.743" height="9.371"/>
		<rect x="23.429" y="126.513" style="fill:#333333;" width="14.057" height="9.371"/>
		<rect x="74.971" y="196.798" style="fill:#333333;" width="9.371" height="9.371"/>
		<rect x="89.028" y="234.284" style="fill:#333333;" width="18.743" height="9.371"/>
		<rect x="112.456" y="192.112" style="fill:#333333;" width="9.371" height="9.371"/>
		<rect x="192.112" y="253.026" style="fill:#333333;" width="14.057" height="9.371"/>
		<rect x="135.884" y="267.083" style="fill:#333333;" width="14.057" height="9.371"/>
		<rect x="89.028" y="168.684" style="fill:#333333;" width="18.743" height="9.371"/>
		<rect x="220.226" y="135.884" style="fill:#333333;" width="18.743" height="9.371"/>
		<rect x="248.34" y="103.085" style="fill:#333333;" width="14.057" height="9.371"/>
		<rect x="32.8" y="93.713" style="fill:#333333;" width="14.057" height="9.371"/>
		<rect x="46.857" y="149.941" style="fill:#333333;" width="14.057" height="9.371"/>
		<rect x="121.827" y="220.227" style="fill:#333333;" width="9.371" height="9.371"/>
		<rect x="103.085" y="262.398" style="fill:#333333;" width="14.057" height="9.371"/>
		<rect x="107.77" y="149.941" style="fill:#333333;" width="9.371" height="9.371"/>
		<rect x="178.055" y="140.57" style="fill:#333333;" width="14.057" height="9.371"/>
		<rect x="178.055" y="159.313" style="fill:#333333;" width="9.371" height="9.371"/>
		<rect x="65.599" y="234.284" style="fill:#333333;" width="14.057" height="9.371"/>
		<rect x="46.857" y="220.227" style="fill:#333333;" width="18.743" height="9.371"/>
		<rect x="93.713" y="201.484" style="fill:#333333;" width="9.371" height="9.371"/>
		<rect x="79.656" y="248.341" style="fill:#333333;" width="9.371" height="9.371"/>
		<rect x="37.486" y="206.169" style="fill:#333333;" width="18.743" height="9.371"/>
		<rect x="65.599" y="206.169" style="fill:#333333;" width="9.371" height="9.371"/>
		<rect x="46.857" y="178.055" style="fill:#333333;" width="9.371" height="9.371"/>
		<rect x="103.085" y="121.827" style="fill:#333333;" width="18.743" height="9.371"/>
		<rect x="14.057" y="145.256" style="fill:#333333;" width="14.057" height="9.371"/>
		<rect x="42.171" y="70.285" style="fill:#333333;" width="14.057" height="9.371"/>
		<rect x="238.969" y="74.971" style="fill:#333333;" width="14.057" height="9.371"/>
		<rect x="65.599" y="173.37" style="fill:#333333;" width="14.057" height="9.371"/>
		<rect x="28.114" y="187.427" style="fill:#333333;" width="9.371" height="9.371"/>
	</g>
</g>
<g>
</g>
<g>
</g>
<g>
</g>
<g>
</g>
<g>
</g>
<g>
</g>
<g>
</g>
<g>
</g>
<g>
</g>
<g>
</g>
<g>
</g>
<g>
</g>
<g>
</g>
<g>
</g>
<g>
</g>
</svg>
