<svg width="56.625" height="56.625" xmlns="http://www.w3.org/2000/svg">

 <g>
  <title>background</title>
  <rect fill="none" id="canvas_background" height="402" width="582" y="-1" x="-1"/>
 </g>
 <g>
  <title>Layer 1</title>
  <g id="svg_1">
   <circle id="svg_3" fill="#4482C3" r="23" cy="27.625" cx="28.5"/>
   <circle id="svg_7" fill="#F3D55B" r="1" cy="30.625" cx="14.625"/>
   <path id="svg_10" fill="#A4E869" d="m29.882,25.735c0.147,0.072 0.361,0.239 0.453,0.374c0.698,1.021 0.296,2.517 0.988,2.883c0.548,0.29 0.859,0.881 0.625,1.454c-0.955,2.343 -0.129,5.024 2.092,6.863c1.563,1.294 0.262,4.294 -1.053,6.65c-0.47,0.842 0.368,1.816 1.277,1.492c1.437,-0.511 2.627,-1.252 4.004,-2.437c1.997,-1.718 2.429,-3.589 4.409,-5.047c0.022,-0.016 0.038,-0.036 0.047,-0.062c0.506,-1.483 2.078,-4.722 0.492,-5.547c-1.481,-0.769 -2.035,-2.997 -3.48,-4.515c-0.166,-0.174 -0.402,-0.261 -0.641,-0.292c-1.771,-0.228 -2.569,-1.576 -3.76,-0.68c-0.893,0.671 -1.896,0.262 -2.208,-0.81c-0.102,-0.35 -0.28,-0.662 -0.923,-0.86c-0.488,-0.151 -0.726,-0.703 -0.55,-1.183c0.003,-0.007 0.005,-0.014 0.008,-0.021c0.235,-0.641 -1.089,-0.543 -1.763,-0.431c-0.189,0.031 0.452,-0.731 0.241,-0.606c-0.828,0.489 -1.856,-0.355 -1.812,-1.315c0.045,-0.974 0.227,-0.928 1.897,-1.12c1.798,-0.837 2.668,-0.227 2.61,1.829c1.111,0.164 1.5,-0.327 1.165,-1.473c-0.098,-0.335 -0.019,-0.709 0.193,-0.986c2.048,-2.664 3.758,-3.825 6.893,-4.901c0.511,-0.175 0.797,-0.718 0.655,-1.239c-0.503,-1.844 -1.283,-4.753 -2.614,-4.963c-0.341,-0.054 -0.728,-0.377 -0.866,-0.693c-0.468,-1.073 -0.783,-1.527 -1.667,-1.787c-0.674,-0.198 -1.356,0.3 -1.36,1.002c-0.012,2.149 -0.005,4.002 -2.466,1.548c-2.036,-2.03 -2.626,-3.135 -1.502,-3.665c-0.052,-0.435 0.002,0.021 -0.049,-0.414c-4.761,-0.568 -9.361,0.37 -13.326,2.435c-0.073,0.038 -0.098,0.134 -0.059,0.207c1.561,2.87 1.877,4.378 1.705,7.726c-0.01,0.185 0.023,0.369 0.101,0.537c1.356,2.922 3.101,7.882 6.081,9.024c1.451,0.559 2.79,0.35 4.163,1.023z"/>
  </g>
  <g id="svg_11"/>
  <g id="svg_12"/>
  <g id="svg_13"/>
  <g id="svg_14"/>
  <g id="svg_15"/>
  <g id="svg_16"/>
  <g id="svg_17"/>
  <g id="svg_18"/>
  <g id="svg_19"/>
  <g id="svg_20"/>
  <g id="svg_21"/>
  <g id="svg_22"/>
  <g id="svg_23"/>
  <g id="svg_24"/>
  <g id="svg_25"/>
  <path id="svg_29" d="m1.750358,3.970499" opacity="0.5" stroke-width="1.5" stroke="#000" fill="#fff"/>
 </g>
</svg>